<svg xmlns="http://www.w3.org/2000/svg" version="1.1" xmlns:xlink="http://www.w3.org/1999/xlink" xmlns:svgjs="http://svgjs.dev/svgjs" width="1000" height="1000" viewBox="0 0 1000 1000"><g transform="matrix(1,0,0,1,-0.49999999999994316,-0.49999999999994316)"><svg viewBox="0 0 280 280" data-background-color="#ffffff" preserveAspectRatio="xMidYMid meet" height="1000" width="1000" xmlns="http://www.w3.org/2000/svg" xmlns:xlink="http://www.w3.org/1999/xlink"><defs></defs><g id="tight-bounds" transform="matrix(1,0,0,1,0.13999999999998636,0.13999999999998636)"><svg viewBox="0 0 279.72 279.72" height="279.72" width="279.72"><g><svg viewBox="0 0 279.72 279.72" height="279.72" width="279.72"><g><svg viewBox="0 0 279.72 279.72" height="279.72" width="279.72"><g><svg viewBox="0 0 279.72 279.72" height="279.72" width="279.72"><g><svg viewBox="0 0 279.72 279.72" height="279.72" width="279.72"><g transform="matrix(1,0,0,1,73.92936372216631,73.92936372216631)"><svg viewBox="0 0 131.8612725556674 131.8612725556674" height="131.8612725556674" width="131.8612725556674"><g><svg xmlns="http://www.w3.org/2000/svg" xmlns:xlink="http://www.w3.org/1999/xlink" version="1.1" x="0" y="0" viewBox="0 0 48 48" enable-background="new 0 0 48 48" xml:space="preserve" height="131.8612725556674" width="131.8612725556674" class="icon-o-0" data-fill-palette-color="accent" id="o-0"><g fill="#ed2647" data-fill-palette-color="accent"><polygon points="48,43.684 43.685,39.368 43.685,42.684 5.317,42.684 5.317,4.316 8.632,4.316 4.315,0 0,4.316 3.315,4.316    3.315,44.686 43.685,44.686 43.685,48  " fill="#ed2647" data-fill-palette-color="accent"></polygon><polygon points="24.566,1.469 18.132,10.049 31,10.049  " fill="#ed2647" data-fill-palette-color="accent"></polygon><polygon points="19.163,39.277 10.065,30.177 8.547,40.796  " fill="#ed2647" data-fill-palette-color="accent"></polygon><polygon points="40.588,40.795 39.067,30.177 29.969,39.277  " fill="#ed2647" data-fill-palette-color="accent"></polygon><path d="M24.566 35.854c6.586 0 11.943-5.357 11.943-11.942 0-6.585-5.357-11.943-11.943-11.943s-11.943 5.358-11.943 11.943C12.623 30.497 17.98 35.854 24.566 35.854zM24.071 24.581c-2.321-0.909-3.755-1.955-3.755-3.937 0-1.89 1.343-3.321 3.438-3.664v-2.3h1.409v2.209c1.365 0.045 2.3 0.41 2.96 0.796l-0.57 1.501c-0.477-0.271-1.411-0.773-2.867-0.773-1.752 0-2.412 1.047-2.412 1.956 0 1.184 0.841 1.776 2.821 2.593 2.346 0.957 3.527 2.142 3.527 4.167 0 1.798-1.252 3.481-3.594 3.868v2.369h-1.436v-2.301c-1.319-0.021-2.686-0.433-3.482-1l0.548-1.525c0.819 0.547 2.002 0.979 3.276 0.979 1.616 0 2.706-0.934 2.706-2.23C26.641 26.039 25.756 25.264 24.071 24.581z" fill="#ed2647" data-fill-palette-color="accent"></path></g></svg></g></svg></g><path d="M3.446 95.195v0c0.408-1.208 0.976-2.327 1.703-3.358 0.729-1.037 1.58-1.969 2.553-2.796v0l1.871 2.493c-0.813 0.56-1.532 1.225-2.157 1.995-0.619 0.772-1.086 1.627-1.403 2.565v0c-0.434 1.284-0.484 2.479-0.15 3.587 0.34 1.11 1.211 1.902 2.615 2.377v0c0.768 0.259 1.496 0.271 2.186 0.034 0.686-0.245 1.351-0.648 1.996-1.208 0.651-0.558 1.308-1.184 1.97-1.879v0c0.669-0.713 1.381-1.433 2.139-2.159 0.757-0.726 1.568-1.352 2.433-1.88 0.865-0.528 1.814-0.866 2.846-1.016 1.032-0.149 2.186-0.008 3.464 0.424v0c1.743 0.589 3.032 1.494 3.867 2.715 0.833 1.228 1.292 2.62 1.375 4.177 0.076 1.561-0.156 3.137-0.693 4.729v0c-0.44 1.302-1.042 2.505-1.807 3.606-0.758 1.104-1.635 2.132-2.631 3.086v0l-2.533-2.307c0.95-0.57 1.833-1.347 2.65-2.333 0.817-0.986 1.401-1.998 1.751-3.036v0c0.27-0.799 0.392-1.659 0.366-2.578-0.024-0.926-0.282-1.781-0.774-2.565-0.486-0.781-1.261-1.351-2.324-1.71v0c-1.063-0.359-2.023-0.403-2.879-0.132-0.858 0.278-1.661 0.746-2.409 1.405-0.75 0.665-1.498 1.383-2.243 2.155v0c-0.652 0.663-1.32 1.324-2.005 1.983-0.677 0.655-1.403 1.216-2.177 1.683-0.775 0.467-1.614 0.762-2.518 0.884-0.904 0.122-1.9 0-2.988-0.368v0c-1.516-0.512-2.648-1.343-3.396-2.493-0.739-1.154-1.153-2.45-1.241-3.889-0.095-1.441 0.086-2.838 0.543-4.191zM142.662 0l3.475 0.113 8.726 28.122-3.933-0.128-2.906-9.653-9.16-0.297-3.566 9.443-3.206-0.104zM147.232 15.827l-3.307-11.121-4.101 10.881zM275.57 98.374v0l1.297 3.884-26.394 8.809-1.126-3.374 24.003-8.011c0.025-0.008 0.206-0.118 0.542-0.328 0.332-0.202 0.677-0.405 1.036-0.608 0.367-0.2 0.582-0.324 0.642-0.372zM33.957 174.677l2.253-1.311 4.888 14.805-2.535 0.837-3.592-10.879-9.224 3.046 2.852 8.637-2.497 0.824-2.852-8.636-12.496 4.126-1.128-3.415zM55.242 211.006v0l2.542 3.261-22.218 17.322-2.212-2.836 20.208-15.755c0.021-0.016 0.155-0.18 0.401-0.489 0.251-0.305 0.514-0.615 0.79-0.932 0.276-0.316 0.439-0.506 0.489-0.571zM78.882 232.827l4.147 2.401 1.168 22.551c0.021 0.427 0.041 0.876 0.06 1.347 0.024 0.475 0.057 0.935 0.098 1.381v0c0.197-0.393 0.397-0.791 0.6-1.195 0.209-0.401 0.417-0.779 0.623-1.136v0l9.313-16.077 2.543 1.473-14.216 24.543-1.974-1.144-1.416-26.217c-0.008-0.396-0.026-0.817-0.052-1.262-0.026-0.445-0.064-0.877-0.112-1.297v0c-0.166 0.38-0.35 0.757-0.552 1.132-0.205 0.38-0.41 0.748-0.617 1.104v0l-10.725 18.518-2.543-1.473 12.842-22.173zM130.953 250.73l3.509 0.233 7.866 28.757-3.976-0.264-2.6-9.867-9.274-0.616-3.922 9.434-3.24-0.215zM135.031 266.905l-2.959-11.369-4.526 10.872zM168.494 247.248l4.495-1.66 18.108 13.49c0.342 0.256 0.701 0.527 1.076 0.814 0.381 0.284 0.756 0.553 1.126 0.805v0c-0.177-0.402-0.356-0.81-0.537-1.224-0.175-0.417-0.334-0.818-0.477-1.205v0l-6.437-17.429 2.757-1.018 9.826 26.606-2.14 0.79-21.09-15.639c-0.31-0.246-0.645-0.501-1.004-0.765-0.359-0.264-0.716-0.511-1.071-0.741v0c0.186 0.37 0.359 0.752 0.519 1.146 0.162 0.4 0.314 0.794 0.457 1.18v0l7.414 20.074-2.757 1.018-8.877-24.036zM239.165 235.375v0c-1.534 1.602-3.138 2.715-4.811 3.338-1.673 0.633-3.359 0.871-5.058 0.715-1.69-0.156-3.313-0.631-4.871-1.424-1.558-0.802-2.98-1.819-4.265-3.051v0c-1.396-1.337-2.546-2.829-3.451-4.477-0.9-1.653-1.484-3.366-1.753-5.141-0.264-1.77-0.126-3.537 0.414-5.3 0.549-1.764 1.572-3.428 3.071-4.992v0c0.625-0.652 1.388-1.291 2.29-1.916 0.898-0.621 1.843-1.132 2.835-1.534 0.996-0.407 1.97-0.583 2.92-0.528v0l0.227 3.004c-1.109-0.032-2.261 0.248-3.456 0.842-1.19 0.589-2.159 1.275-2.908 2.057v0c-1.038 1.084-1.703 2.273-1.994 3.566-0.291 1.293-0.284 2.62 0.022 3.981 0.297 1.361 0.831 2.685 1.601 3.974 0.77 1.289 1.695 2.451 2.774 3.484v0c1.679 1.608 3.387 2.724 5.124 3.349 1.733 0.63 3.403 0.767 5.011 0.414 1.608-0.354 3.055-1.203 4.342-2.546v0c0.749-0.782 1.449-1.734 2.102-2.857 0.652-1.132 1.2-2.414 1.643-3.847v0l2.417 0.659c-0.126 0.919-0.41 1.888-0.853 2.908-0.438 1.024-0.953 2.003-1.543 2.936-0.595 0.938-1.205 1.733-1.83 2.386zM239.419 187.797l-2.577-0.392 5.937-15.829 2.5 0.937-4.485 11.959 9.095 3.41 3.48-9.281 2.463 0.924-3.481 9.281 9.822 3.684 4.485-11.959 2.5 0.938-5.748 15.325zM2.853 143.922c0-5.952 4.825-10.777 10.778-10.777 5.952 0 10.777 4.825 10.777 10.777 0 5.952-4.825 10.777-10.777 10.778-5.952 0-10.777-4.825-10.778-10.778zM253.655 143.922c0-5.952 4.825-10.777 10.778-10.777 5.952 0 10.777 4.825 10.777 10.777 0 5.952-4.825 10.777-10.777 10.778-5.952 0-10.777-4.825-10.778-10.778z" fill="#5e1914" data-fill-palette-color="primary"></path></svg></g></svg></g></svg></g></svg></g></svg><rect width="279.72" height="279.72" fill="none" stroke="none" visibility="hidden"></rect></g></svg></g></svg>