<svg width="170" height="167" viewBox="0 0 170 167" fill="none"
    xmlns="http://www.w3.org/2000/svg">
    <path d="M37.1555 14.5221C52.9068 4.04779 71.8059 -0.95406 90.8181 0.319663C109.83 1.59339 127.853 9.06878 141.991 21.5456C156.13 34.0223 165.565 50.7766 168.781 69.1183C171.997 87.4599 168.807 106.325 159.725 122.684C150.642 139.043 136.193 151.947 118.697 159.324C101.202 166.701 81.6753 168.123 63.2527 163.362C44.8301 158.601 28.5803 147.933 17.1126 133.071C5.64484 118.209 -0.375523 100.015 0.0181373 81.4105L12.5423 81.6631C12.2066 97.5259 17.3398 113.039 27.1174 125.71C36.8951 138.382 50.7501 147.478 66.4577 151.538C82.1653 155.597 98.8143 154.384 113.731 148.094C128.648 141.804 140.968 130.802 148.712 116.854C156.456 102.906 159.176 86.8211 156.434 71.1825C153.692 55.544 145.647 41.2588 133.592 30.6208C121.537 19.9828 106.171 13.6091 89.9607 12.5231C73.7504 11.437 57.6365 15.7018 44.2066 24.6324L37.1555 14.5221Z" fill="#FF8A00"/>
</svg>
