<svg xmlns="http://www.w3.org/2000/svg" fill="none" viewBox="0 0 24 24"><path fill="#34a853" fill-rule="evenodd" d="M2 11.25C1.58579 11.25 1.25 11.5858 1.25 12V21C1.25 21.4142 1.58579 21.75 2 21.75H5C5.33979 21.75 5.63713 21.5216 5.72468 21.1932L7.72468 13.6932C7.81085 13.3701 7.67265 13.0289 7.38587 12.8569L6.66721 12.4257C5.38503 11.6564 3.91788 11.25 2.42262 11.25H2Z" class="color000000 svgShape" clip-rule="evenodd"/><path fill="#34a853" fill-rule="evenodd" d="M17.9481 16.4481C19.3174 15.9502 20.8511 16.2904 21.8813 17.3207L22.5303 17.9697C22.703 18.1424 22.7808 18.3883 22.7388 18.6289C22.6968 18.8695 22.5403 19.0746 22.3193 19.1786L15.7545 22.268C14.3465 22.9305 12.7529 23.0863 11.2432 22.7089L5.31809 21.2276C4.91625 21.1271 4.67193 20.7199 4.77239 20.3181C4.87285 19.9162 5.28005 19.6719 5.6819 19.7724L11.607 21.2537C12.7812 21.5472 14.0207 21.4261 15.1158 20.9107L20.7102 18.278C20.0962 17.7412 19.2347 17.5763 18.4607 17.8578L17.0219 18.381C15.4212 18.9631 13.705 19.1565 12.0148 18.9452L10.407 18.7442C9.99595 18.6928 9.70441 18.318 9.75579 17.907C9.80716 17.496 10.182 17.2044 10.593 17.2558L12.2009 17.4568C13.6552 17.6386 15.1319 17.4722 16.5093 16.9713L17.9481 16.4481Z" class="color000000 svgShape" clip-rule="evenodd"/><path fill="#34a853" fill-rule="evenodd" d="M6.25916 14.383C6.32377 13.9739 6.70781 13.6946 7.11696 13.7592L14.1476 14.8693C15.8262 15.1343 16.6197 17.0904 15.6 18.45L14.4 17.55C14.7414 17.0947 14.4757 16.4397 13.9136 16.3509L6.88302 15.2408C6.47387 15.1762 6.19456 14.7922 6.25916 14.383zM16.5 2.75C14.1528 2.75 12.25 4.65279 12.25 7 12.25 9.34721 14.1528 11.25 16.5 11.25 18.8472 11.25 20.75 9.34721 20.75 7 20.75 4.65279 18.8472 2.75 16.5 2.75zM10.75 7C10.75 3.82436 13.3244 1.25 16.5 1.25 19.6756 1.25 22.25 3.82436 22.25 7 22.25 10.1756 19.6756 12.75 16.5 12.75 13.3244 12.75 10.75 10.1756 10.75 7z" class="color000000 svgShape" clip-rule="evenodd"/><path fill="#34a853" fill-rule="evenodd" d="M16.5 3.25C16.9142 3.25 17.25 3.58579 17.25 4V4.25H17.5C17.9142 4.25 18.25 4.58579 18.25 5C18.25 5.41421 17.9142 5.75 17.5 5.75H16.5C16.3619 5.75 16.25 5.86193 16.25 6V6.25H17.5C17.9142 6.25 18.25 6.58579 18.25 7V8C18.25 8.6981 17.8412 9.30073 17.25 9.58159V10C17.25 10.4142 16.9142 10.75 16.5 10.75C16.0858 10.75 15.75 10.4142 15.75 10V9.75H15.5C15.0858 9.75 14.75 9.41421 14.75 9C14.75 8.58579 15.0858 8.25 15.5 8.25H16.5C16.6381 8.25 16.75 8.13807 16.75 8V7.75H15.5C15.0858 7.75 14.75 7.41421 14.75 7V6C14.75 5.3019 15.1588 4.69927 15.75 4.41841V4C15.75 3.58579 16.0858 3.25 16.5 3.25Z" class="color000000 svgShape" clip-rule="evenodd"/></svg>