<svg xmlns="http://www.w3.org/2000/svg" enable-background="new 0 0 64 64" viewBox="0 0 64 64"><path fill="#65bc6a" d="M22.88,8.17l35.3,26.25c-1.97,2.66-1.42,6.42,1.24,8.4l-9.55,12.83c-2.66-1.97-6.42-1.42-8.39,1.24
			L6.17,30.63c1.98-2.66,1.42-6.42-1.24-8.39L14.48,9.4C17.14,11.38,20.89,10.82,22.88,8.17z"/><path fill="#398f3e" d="M62.2 37.4c.44.33.53.96.2 1.4l-2.98 4.02c-2.66-1.98-3.21-5.74-1.24-8.4L62.2 37.4zM49.87 55.65l-2.98 4.02c-.33.44-.96.53-1.4.2l-4.01-2.98C43.45 54.23 47.21 53.68 49.87 55.65zM37.55 25.3c3.98 2.97 4.81 8.61 1.85 12.6-2.97 3.99-8.61 4.81-12.59 1.85-3.99-2.97-4.82-8.61-1.86-12.59C27.92 23.17 33.56 22.34 37.55 25.3z"/><path fill="#65bc6a" d="M27.999 38.143c.179.133.389.198.596.198.306 0 .607-.139.803-.403l.849-1.142c.068.01.132.029.201.034.073.005.146.008.218.008 1.557 0 2.876-1.208 2.991-2.784.038-.526-.063-1.053-.293-1.526-.105-.216-.236-.419-.39-.604-.057-.075-.124-.143-.201-.2-.214-.16-.354-.393-.393-.657-.039-.264.027-.528.187-.742.159-.214.393-.354.657-.393.266-.038.528.028.743.188.143.106.251.243.321.404.035.081.059.167.072.253.081.547.591.922 1.135.844.546-.081.924-.588.844-1.135-.038-.259-.11-.512-.214-.753-.072-.167-.177-.315-.278-.465l.713-.959c.33-.443.238-1.069-.206-1.399-.442-.329-1.069-.238-1.399.206l-.705.948c-.422-.131-.868-.177-1.316-.11-.793.117-1.493.535-1.971 1.178-.958 1.289-.726 3.101.504 4.109.038.051.071.105.099.162.077.159.11.33.097.508-.04.55-.534.966-1.069.925-.267-.019-.51-.141-.684-.343-.175-.202-.261-.46-.241-.726.04-.551-.375-1.03-.925-1.07-.572-.037-1.03.375-1.07.925-.058.799.199 1.573.724 2.179.018.021.04.035.058.055l-.66.888C27.463 37.188 27.555 37.814 27.999 38.143zM6.17 30.63l27.82 20.69h-.01L6.79 42.67c1.01-3.16-.74-6.53-3.9-7.54L4 31.64l.67-2.12L6.17 30.63z"/><polygon fill="#398f3e" points="33.98 51.32 24.21 48.21 4.17 33.31 3.6 32.89 4 31.64 4.67 29.52 6.17 30.63"/><path fill="#65bc6a" d="M36.25,53H10c0-3.31-2.69-6-6-6v-5.22l2.79,0.89l27.19,8.65h0.01L36.25,53z"/><polygon fill="#29752b" points="36.25 53 29.83 53 6.79 45.67 4 44.78 4 41.78 6.79 42.67 33.98 51.32 33.99 51.32"/><path fill="#236823" d="M60,47v5c0,0.55-0.45,1-1,1h-3.02l0.28-0.89l1.49-4.67C58.44,47.15,59.2,47,60,47z"/><path fill="#29752b" d="M60,42.03V47c-0.8,0-1.56,0.15-2.25,0.44l1.32-4.15v-0.01l0.35-0.46L60,42.03z"/><path fill="#65bc6a" d="M59.07,43.29l-1.32,4.15l-1.49,4.67c-0.71-0.23-1.44-0.31-2.15-0.27c-0.56,0.03-1.11,0.14-1.64,0.32
		L59.07,43.29z"/><path fill="#398f3e" d="M56.26 52.11L55.98 53l-1.24 3.88c-.16.52-.73.81-1.25.65l-4.05-1.29.43-.59 2.6-3.49c.53-.18 1.08-.29 1.64-.32C54.82 51.8 55.55 51.88 56.26 52.11zM60 26v4.22l-1.99-.64-2.71-.86h-.01C54.48 27.7 54 26.41 54 25h5C59.55 25 60 25.45 60 26z"/><path fill="#65bc6a" d="M55.29,28.72l-8.33-2.65h-0.01L45.52,25H54C54,26.41,54.48,27.7,55.29,28.72z"/><polygon fill="#398f3e" points="10.67 14.52 8.54 17.39 8.54 17.38 9.56 14.17"/><path fill="#398f3e" d="M10 53H5c-.55 0-1-.45-1-1v-5C7.31 47 10 49.69 10 53zM2.89 35.13c3.16 1.01 4.91 4.38 3.9 7.54L4 41.78l-1.98-.63c-.52-.16-.81-.73-.65-1.25L2.89 35.13zM22.88 8.16v.01c-1.99 2.65-5.74 3.21-8.4 1.23l2.99-4.01c.32-.45.95-.54 1.39-.21L22.88 8.16zM4.93 22.24c2.66 1.97 3.22 5.73 1.24 8.39l-4.01-2.98c-.45-.33-.54-.96-.21-1.4L4.93 22.24z"/><path fill="#65bc6a" d="M57.98,29.67c-0.43,1.17-0.5,3.04-0.23,4.42l-10.79-8.02l8.33,2.65h0.01l2.71,0.86L57.98,29.67z"/><path fill="#398f3e" d="M57.75 34.09c-.27-1.38-.2-3.25.23-4.42l.03-.09L60 30.22l1.98.63c.52.16.81.73.65 1.25l-1.45 4.54-3-2.22L57.75 34.09zM59.07 43.29l-1.32 4.15-1.49 4.67c-.71-.23-1.44-.31-2.15-.27-.56.03-1.11.14-1.64.32L59.07 43.29z"/><path fill="#29752b" d="M54.11,51.84c-0.56,0.03-1.11,0.14-1.64,0.32l-1.73,2.33l-0.87,1.16l-0.43,0.59l3.23,1.03l0.82,0.26
	c0.52,0.16,1.09-0.13,1.25-0.65L55.98,53l0.1-0.32l0.18-0.57C55.55,51.88,54.82,51.8,54.11,51.84z"/><path fill="#236823" d="M56.34,29.05l-1.04-0.33h-0.01c-0.22-0.27-0.41-0.56-0.57-0.87L56.34,29.05z"/><path fill="#29752b" d="M55.29,28.72l-8.33-2.65h-0.01L45.52,25h5.37l3.83,2.85C54.88,28.16,55.07,28.45,55.29,28.72z"/><path fill="#398f3e" d="M57.63,31.32c0.05-0.41,0.11-0.81,0.2-1.16l-1.49-1.11l-1.04-0.33h-0.01l-8.33-2.65l10.06,7.48l0.73,0.54
	C57.59,33.26,57.55,32.25,57.63,31.32z"/><polygon fill="#398f3e" points="61.09 36.57 61.29 36.3 61.18 36.64"/><path fill="#29752b" d="M62.2,33.4l-4.02-2.98l-0.35-0.26c-0.09,0.35-0.15,0.75-0.2,1.16c-0.08,0.93-0.04,1.94,0.12,2.77l0.43,0.33
	l2.91,2.15l0.2-0.27l0.92-2.89L62.2,33.4z"/></svg>