<svg xmlns="http://www.w3.org/2000/svg" data-name="Camada 1" viewBox="0 0 100 100"><rect width="65.049" height="8.805" x="10.917" y="11.676" fill="#ea4335" class="colord6fbe9 svgShape"/><path fill="#4285f4" d="M81.16,18.17,81.17,0H18.18A11.40971,11.40971,0,0,0,6.74,10.8L6.73,55.19v5.43H6.72V72.68A12.12472,12.12472,0,0,0,18.84,84.8h4.93a19.91616,19.91616,0,0,1-.61-4.92,20.12,20.12,0,1,1,40.24,0,19.91615,19.91615,0,0,1-.61,4.92H81.16A12.12472,12.12472,0,0,0,93.28,72.68V30.29A12.11831,12.11831,0,0,0,81.16,18.17ZM19.09,5.19H75.97V18.17H19.09a6.49,6.49,0,0,1,0-12.98ZM78.3,54.35a3.165,3.165,0,1,1,3.16-3.17A3.171,3.171,0,0,1,78.3,54.35Z" class="color7a4de8 svgShape"/><path fill="#34a853" d="M63.4,79.88a19.91615,19.91615,0,0,1-.61,4.92H23.77a19.91616,19.91616,0,0,1-.61-4.92,20.12,20.12,0,1,1,40.24,0Z" class="colordcb262 svgShape"/><path fill="#fbbc05" d="M62.79,84.8a20.12107,20.12107,0,0,1-39.02,0Z" class="colorffd317 svgShape"/></svg>